<?xml version="1.0" encoding="UTF-8"?>
<svg version="1.1" xmlns="http://www.w3.org/2000/svg" width="3700" height="2400">
<path d="M0 0 C5.89701125 0.00377191 11.79400568 0.00240547 17.69101632 -0.00180185 C73.89541703 -0.04072662 130.04667707 0.56901378 186.22556984 2.40799963 C189.22946921 2.50631399 192.23340409 2.60349238 195.237342 2.70062125 C382.38725399 8.78172292 382.38725399 8.78172292 422.08310616 26.12856925 C422.75341866 26.4210253 423.42373116 26.71348135 424.11435616 27.01479971 C456.35201606 41.43168881 479.85443135 68.03466393 492.47763741 100.7418505 C522.88136403 190.60175363 518.14026809 301.84892687 486.17685616 624.202788 C471.31626942 654.01686337 444.4639598 676.3559218 413.39560616 687.75356925 C339.6648198 710.84175183 251.26895952 706.14715778 174.58310616 708.31606925 C173.29108284 708.35290823 171.99905953 708.38974722 170.66788399 708.42770255 C161.67815238 708.67757369 152.68789033 708.88428573 143.69671547 709.07307684 C140.88343973 709.13280858 138.07021961 709.19485065 135.25699532 709.2569567 C94.31973129 710.14974054 53.39373641 710.33102205 12.44863617 710.31679356 C9.93358901 710.31606212 7.41854222 710.31581702 4.90349495 710.31570685 C-51.39015075 710.3119549 -107.64701272 709.90853453 -163.91689384 708.12856925 C-165.63942779 708.07474929 -167.36196197 708.02093665 -169.08449638 707.96713126 C-228.36301577 706.10300378 -287.98682869 704.10751571 -346.91689384 697.12856925 C-347.93284629 697.0083541 -347.93284629 697.0083541 -348.96932304 696.88571036 C-369.30827247 694.45100451 -390.08303876 691.59894995 -408.91689384 683.12856925 C-410.60298759 682.37640128 -410.60298759 682.37640128 -412.32314384 681.609038 C-442.74007402 667.24174907 -465.91058281 640.7982095 -477.34658134 609.3043505 C-497.32727492 550.82132153 -497.36184604 482.61584685 -499.82119071 421.50143301 C-499.91097459 419.27533127 -500.0036039 417.04936365 -500.09658134 414.82339346 C-504.09799954 316.99769851 -504.99678177 209.89440139 -450.41689384 56.87856925 C-393.82236432 -3.91318547 -282.87404355 6.61933006 -191.77111137 3.05093253 C-181.78660805 2.69417574 -171.80114964 2.36993696 -161.81492698 2.06534445 C-159.88244703 2.00633437 -157.94999321 1.94647059 -156.01754081 1.88656485 C-146.31820132 1.59091714 -136.61817409 1.3490438 -126.91689384 1.12856925 C-125.99305397 1.10719649 -125.06921409 1.08582373 -124.11737907 1.06380332 C-82.74313319 0.11298945 -41.38283982 -0.02953322 0 0 Z " fill="#FF0000" transform="translate(954.9168938398361,1692.8714307546616)"/>
<path d="M0 0 C32.34 0 64.68 0 98 0 C98.33 76.56 98.66 153.12 99 232 C102.465 226.555 102.465 226.555 106 221 C123.13421385 198.24801111 146.51711585 182.18596872 175 178 C200.23635062 176.39449331 224.15424537 179.25701138 243.78515625 196.4375 C270.41148068 221.63545214 275.51064632 261.63044366 279.1875 296.25 C279.27235657 297.04493866 279.35721313 297.83987732 279.44464111 298.65890503 C279.6920752 301.00637763 279.9316156 303.35451267 280.16796875 305.703125 C280.23758316 306.37160965 280.30719757 307.0400943 280.37892151 307.72883606 C280.6153123 310.15087288 280.81253819 312.57365044 281 315 C281.13213394 316.68277039 281.13213394 316.68277039 281.26693726 318.39953613 C282.34303696 333.70643246 282.18242272 349.06249975 282.20018864 364.39863968 C282.20315555 366.83761052 282.20726653 369.27657705 282.21169281 371.71554565 C282.22531885 379.40957136 282.23500704 387.10358673 282.2388947 394.79762363 C282.24335174 403.56088977 282.26081023 412.32399809 282.2898953 421.08721638 C282.31181224 427.9381632 282.32161476 434.78906666 282.32293582 441.64004803 C282.32396355 445.69528528 282.32941802 449.75037345 282.34775543 453.80557251 C282.41823473 470.36056466 282.10324296 486.76858382 280.62402344 503.265625 C280.56273207 503.95188021 280.50144071 504.63813541 280.43829203 505.34518623 C276.95913138 543.36558942 270.31465132 586.46314648 244 616 C243.27425781 616.83144531 242.54851563 617.66289062 241.80078125 618.51953125 C229.46387041 631.79445514 212.22671604 639.99363292 194.08178711 641.19287109 C163.18496935 642.00782992 134.91260578 636.10434308 111.82885742 614.29125977 C106.48800458 609.06825924 102.10144874 603.76263329 98.3671875 597.2421875 C97.08182099 595.13418643 95.76613999 593.69785981 94 592 C93.84543335 592.92897095 93.84543335 592.92897095 93.68774414 593.87670898 C92.27482831 602.02415278 90.39592184 610.03095146 88.4375 618.0625 C88.11761264 619.39252381 87.79794988 620.72260167 87.47851562 622.05273438 C85.13046329 631.73907343 85.13046329 631.73907343 84 634 C56.28 634 28.56 634 0 634 C0 424.78 0 215.56 0 0 Z M112.7578125 264.83203125 C103.84266891 275.82737501 98.36846243 287.63681502 98.47187805 301.86709595 C98.46352139 302.90328328 98.45516473 303.9394706 98.44655484 305.00705755 C98.42373794 308.448426 98.42917204 311.88913605 98.43481445 315.33056641 C98.42447381 317.81017263 98.41248281 320.28977243 98.39897156 322.7693634 C98.37120891 328.78614546 98.36231842 334.8026726 98.36354706 340.81949617 C98.36438184 345.71143583 98.35849224 350.60332272 98.34792137 355.4952507 C98.31529126 370.8953821 98.30624438 386.29535071 98.31501111 401.69551162 C98.32099753 413.82980366 98.29056206 425.96369224 98.24338839 438.09788366 C98.19525406 450.57703543 98.17321582 463.05599297 98.1786992 475.53523958 C98.18127206 482.53367534 98.17335412 489.53172406 98.13762856 496.53007889 C98.10431041 503.1081628 98.10746641 509.68553533 98.13507271 516.26369286 C98.13953042 518.67554109 98.13206904 521.08744568 98.11172867 523.49921227 C98.08580925 526.79609836 98.1032083 530.0900656 98.13130188 533.38687134 C98.10480976 534.81290788 98.10480976 534.81290788 98.07778245 536.26775324 C98.23745051 544.95418157 102.60367309 549.43581509 108.37109375 555.48828125 C117.63001426 563.66203527 127.19389574 567.62150136 139.71484375 567.24609375 C149.50446802 566.19182652 156.52603528 561.88077172 163.1875 554.8125 C182.28325882 531.05923903 179.72305226 488.22279051 180.54296875 459.640625 C180.5640954 458.91173632 180.58522205 458.18284763 180.60698891 457.43187141 C181.16953921 437.41056902 181.18730777 417.38500459 181.18530273 397.35717773 C181.18522127 393.07555945 181.19221973 388.7940477 181.20581055 384.51245117 C181.27003723 363.92370423 181.33411836 343.35604414 180.1015625 322.796875 C180.06181494 322.12439665 180.02206738 321.4519183 179.98111534 320.75906181 C178.12972043 287.48698938 178.12972043 287.48698938 164 258 C156.71606319 251.72480983 149.62851592 249.49884888 140.08984375 249.6875 C129.66382809 250.74196429 119.8543756 257.35588454 112.7578125 264.83203125 Z " fill="#272727" transform="translate(3049,1720)"/>
<path d="M0 0 C33.33 0 66.66 0 101 0 C101.01458252 10.18963623 101.02916504 20.37927246 101.04418945 30.87768555 C101.09302562 63.54168607 101.15645643 96.20564382 101.22898628 128.86959998 C101.24025342 133.94976888 101.25139204 139.02993806 101.26245117 144.11010742 C101.26465486 145.12140793 101.26685854 146.13270843 101.269129 147.1746544 C101.30442812 163.51430498 101.32933385 179.85395552 101.35034702 196.19363 C101.37216807 212.98009595 101.4052779 229.76651276 101.44870156 246.55293685 C101.47511006 256.89736898 101.4928848 267.24173996 101.49934604 277.58620409 C101.50463317 284.6955754 101.52096047 291.80487 101.54566566 298.91420009 C101.55956774 303.00585235 101.56889439 307.09736765 101.56500816 311.18904495 C99.84798046 344.85468292 99.84798046 344.85468292 111.703125 374.98046875 C118.08391625 380.82027988 124.56038355 381.62373229 133.015625 381.37109375 C145.20025762 380.5456642 156.47098543 373.29174346 164.5 364.375 C168.47919654 359.59511147 170.3737817 354.94053473 170.38476086 348.71754646 C170.3942174 347.46899474 170.40367394 346.22044302 170.41341704 344.9340564 C170.40878775 343.55647003 170.4038813 342.17888456 170.39872742 340.80130005 C170.40416807 339.33181232 170.41092014 337.86232896 170.41886932 336.39285266 C170.43690079 332.35879901 170.43633682 328.32492938 170.43273985 324.29084492 C170.4321163 319.93914118 170.44873332 315.58749935 170.46325684 311.23582458 C170.48605558 303.69756742 170.49793015 296.15935651 170.50238609 288.62106705 C170.50884442 277.72197702 170.53177624 266.82297064 170.55872939 255.9239143 C170.60201159 238.24095463 170.63197017 220.55799847 170.65356445 202.875 C170.67456984 185.69757355 170.7018411 168.52017589 170.73754883 151.34277344 C170.73974765 150.28396635 170.74194648 149.22515926 170.74421193 148.13426711 C170.75528148 142.8225454 170.76647431 137.51082396 170.77772844 132.19910264 C170.87093386 88.13275248 170.94007048 44.06641045 171 0 C204.66 0 238.32 0 273 0 C273 147.51 273 295.02 273 447 C246.6 447 220.2 447 193 447 C191.06353528 436.67218818 189.20208925 426.40208465 187.63745117 416.0234375 C187.30725106 413.84029623 186.96920307 411.65845486 186.63085938 409.4765625 C186.41619691 408.06517553 186.20198682 406.65371967 185.98828125 405.2421875 C185.79790283 403.9929248 185.60752441 402.74366211 185.41137695 401.45654297 C185.03118443 398.26202322 184.9221014 395.21262465 185 392 C181.91560803 394.64917101 180.26658849 397.9756919 178.375 401.5 C174.5816604 408.30520738 170.25295755 414.21931101 165 420 C164.52965332 420.51949219 164.05930664 421.03898437 163.57470703 421.57421875 C147.01715064 439.62726178 125.63617476 451.43118337 101 454 C74.78800468 455.07604691 50.73835285 453.63104388 29.9375 435.875 C8.30206129 415.52819244 1.87585172 385.61213277 0 357 C-0.13483464 352.04127125 -0.13121697 347.08423382 -0.12025452 342.12409973 C-0.12069135 340.64205221 -0.12156832 339.16000476 -0.12284368 337.67795771 C-0.12506663 333.6324387 -0.12109767 329.58694644 -0.11606562 325.54143083 C-0.11172954 321.16871354 -0.11320978 316.79599765 -0.1139679 312.42327881 C-0.11449113 304.85619057 -0.11136526 297.28911098 -0.10573006 289.72202492 C-0.09758792 278.78141532 -0.09499706 267.84080989 -0.09374207 256.90019759 C-0.09155581 239.14789954 -0.08490728 221.3956061 -0.07543945 203.64331055 C-0.06625431 186.40307641 -0.05917887 169.16284352 -0.05493164 151.92260742 C-0.05466892 150.85913996 -0.05440619 149.7956725 -0.05413551 148.69997875 C-0.05283043 143.3646423 -0.05156673 138.02930584 -0.05032361 132.69396937 C-0.03996427 88.46264215 -0.02153311 44.23132346 0 0 Z " fill="#272727" transform="translate(2203,1907)"/>
<path d="M0 0 C33.66 0 67.32 0 102 0 C102.01458252 10.39757813 102.02916504 20.79515625 102.04418945 31.5078125 C102.09299143 64.81124367 102.15641289 98.11463273 102.22898628 131.41802025 C102.24025387 136.59476065 102.25139241 141.77150133 102.26245117 146.94824219 C102.26465486 147.97879793 102.26685854 149.00935368 102.269129 150.07113838 C102.30446 166.73749324 102.32934781 183.40384806 102.35034702 200.07022643 C102.37214254 217.18324136 102.4052285 234.29620788 102.44870156 251.40918159 C102.47515371 261.96091701 102.49289644 272.51259215 102.49934604 283.06435907 C102.50461966 290.30918674 102.52090258 297.55393869 102.54566566 304.79872572 C102.55961326 308.97279397 102.56887688 313.14672688 102.56500816 317.32081985 C102.56156397 321.15338165 102.57215503 324.98565586 102.59323552 328.81815886 C102.60088604 330.83835976 102.59411805 332.85860002 102.58658296 334.87880135 C102.69237611 348.71873905 104.58275056 362.77061206 111.6875 374.875 C118.10021636 380.76776639 124.99404032 381.6625239 133.51171875 381.37890625 C145.11577292 380.11844348 155.31865465 373.52857654 164 366 C165.78963818 363.78736975 165.78963818 363.78736975 167.25 361.4375 C167.75015625 360.67308594 168.2503125 359.90867187 168.765625 359.12109375 C170.95449284 355.35984301 171.12809897 352.37257196 171.1386652 348.10230732 C171.14413964 346.86321214 171.14961409 345.62411696 171.15525442 344.34747344 C171.15633069 342.96499152 171.15731537 341.58250952 171.15821838 340.20002747 C171.16278264 338.73725759 171.16778246 337.27448901 171.17318195 335.81172198 C171.18678804 331.78234575 171.19418855 327.75297798 171.20060861 323.72358477 C171.20860172 319.38207354 171.22230323 315.04057997 171.23532104 310.69908142 C171.25709927 303.17387761 171.27523884 295.64867202 171.29092598 288.12345314 C171.31361235 277.24317129 171.34175688 266.36290898 171.37124526 255.48264369 C171.4189363 237.83129256 171.46219638 220.17993346 171.50268555 202.52856445 C171.54203278 185.37914407 171.58345715 168.22973079 171.62768555 151.08032227 C171.63177196 149.49540987 171.63177196 149.49540987 171.63594092 147.87847904 C171.64962027 142.57792963 171.66334057 137.27738033 171.67708123 131.97683108 C171.79106976 87.98456796 171.89706038 43.99229063 172 0 C205.33 0 238.66 0 273 0 C273 147.51 273 295.02 273 447 C246.6 447 220.2 447 193 447 C189.0625 421.125 189.0625 421.125 187.82446289 412.95361328 C187.49912905 410.8258053 187.1735442 408.69803568 186.84765625 406.5703125 C186.68003784 405.457771 186.51241943 404.34522949 186.33972168 403.19897461 C186.17742065 402.14347412 186.01511963 401.08797363 185.84790039 400.00048828 C185.70800186 399.08115509 185.56810333 398.1618219 185.42396545 397.21463013 C185.09799391 394.97010162 185.09799391 394.97010162 184 393 C183.47792969 393.92039062 182.95585937 394.84078125 182.41796875 395.7890625 C168.00093294 420.75952812 148.06782419 442.13912919 119.57421875 450.34765625 C108.75649393 453.21468217 98.66023678 454.20632001 87.5 454.25 C85.57027344 454.2809375 85.57027344 454.2809375 83.6015625 454.3125 C62.58458176 454.39707538 42.91368643 448.10653791 27.75 433.25 C-1.86155278 403.12059813 -0.33393644 355.00910966 -0.23213124 315.79346466 C-0.2233595 311.54026858 -0.22642643 307.28707711 -0.22793579 303.03387451 C-0.22897612 295.69400048 -0.22278973 288.35416246 -0.21146011 281.01429749 C-0.19509093 270.40255619 -0.18998554 259.79083202 -0.18748413 249.17907947 C-0.18312477 231.95531399 -0.16986384 214.73156762 -0.15087891 197.5078125 C-0.13247427 180.79296971 -0.1183403 164.07813215 -0.10986328 147.36328125 C-0.10933783 146.33011215 -0.10881239 145.29694306 -0.10827102 144.2324658 C-0.10566063 139.04850427 -0.10313329 133.86454269 -0.10064721 128.68058109 C-0.07996959 85.78703707 -0.04312975 42.89352848 0 0 Z " fill="#282828" transform="translate(2717,1907)"/>
<path d="M0 0 C2.61720941 0.00314947 5.23327173 -0.02036504 7.8503418 -0.0456543 C40.85563657 -0.16959116 73.49439135 7.88546722 97.82495117 31.25317383 C127.34778854 62.31717073 135.32026356 107.27788462 139.44995117 148.31567383 C139.57112305 149.48485352 139.69229492 150.6540332 139.81713867 151.85864258 C141.99519372 176.31226062 141.63797918 201.00638843 141.63525391 225.53198242 C141.63517314 229.44609243 141.64205257 233.36008415 141.65576172 237.27416992 C141.72682455 257.92141127 141.58617125 278.52268105 140.55151367 299.14770508 C140.51176611 299.95639668 140.47201855 300.76508827 140.43106651 301.59828568 C138.03769621 348.99199163 130.16341752 401.03787304 94.32495117 435.44067383 C81.13079095 447.01772249 65.37330027 453.70926671 48.51245117 458.06567383 C47.37030151 458.36393066 47.37030151 458.36393066 46.20507812 458.66821289 C32.20603405 462.06704379 18.15561823 462.69374273 3.82495117 462.62817383 C2.9940094 462.62635101 2.16306763 462.6245282 1.3069458 462.62265015 C-11.83760748 462.57424226 -24.64048838 461.98132642 -37.55004883 459.31567383 C-38.40147461 459.14406738 -39.25290039 458.97246094 -40.13012695 458.7956543 C-51.91724804 456.34036977 -62.79960463 452.73851694 -73.55004883 447.31567383 C-74.61739258 446.78200195 -75.68473633 446.24833008 -76.78442383 445.69848633 C-84.79193759 441.36281178 -91.15890412 435.69794194 -97.55004883 429.31567383 C-98.35442383 428.52290039 -99.15879883 427.73012695 -99.98754883 426.91333008 C-138.33039812 386.90629462 -137.70264797 317.06347042 -137.71801758 265.54614258 C-137.72124178 262.97333255 -137.72460667 260.40052269 -137.72810364 257.82771301 C-137.73405784 252.45463559 -137.73599097 247.08157615 -137.73535156 241.70849609 C-137.73475402 235.5829469 -137.74525683 229.45748668 -137.76109523 223.3319599 C-137.77599452 217.34659118 -137.77933295 211.36126891 -137.77874184 205.37587929 C-137.77990193 202.87391104 -137.78420888 200.37194173 -137.7920742 197.86998558 C-137.85696239 175.0905496 -137.0813607 152.20163845 -133.80004883 129.62817383 C-133.63230957 128.45158203 -133.46457031 127.27499023 -133.29174805 126.06274414 C-127.97245023 90.53420802 -117.44164966 56.24512788 -91.55004883 30.31567383 C-90.83333008 29.58735352 -90.11661133 28.8590332 -89.37817383 28.10864258 C-65.90675428 5.74020327 -31.14158149 -0.07793333 0 0 Z M-20.55004883 80.31567383 C-34.77086712 102.97257077 -34.70408832 131.62361875 -34.6953125 157.52246094 C-34.69831204 159.30984567 -34.70171637 161.09722977 -34.70549011 162.88461304 C-34.71425598 167.7012939 -34.71666515 172.51795696 -34.7173059 177.33464503 C-34.71802091 180.35711202 -34.72016376 183.3795746 -34.72280312 186.40204048 C-34.7320338 196.98433846 -34.73614108 207.56662391 -34.73535156 218.14892578 C-34.7347522 227.95083381 -34.74528217 237.75268656 -34.76109523 247.55458063 C-34.7742559 256.01969848 -34.77953188 264.48479846 -34.77889615 272.94992644 C-34.77864355 277.98348762 -34.78136087 283.01699964 -34.7920742 288.05055046 C-37.48209685 340.38364482 -37.48209685 340.38364482 -17.55004883 386.31567383 C-11.21542813 391.46502246 -3.94484772 393.86241728 4.23901367 393.63598633 C13.50486897 392.29358326 20.29374669 388.31514757 25.94995117 381.00317383 C39.16634363 361.32224158 38.59814292 333.90873633 38.61108398 311.15844727 C38.61572154 309.24490261 38.62074743 307.33135887 38.62612915 305.41781616 C38.6391689 300.24765903 38.64568207 295.07751484 38.65013981 289.90734386 C38.65308551 286.66477222 38.65719312 283.422204 38.66164398 280.17963409 C38.67529959 269.99853463 38.6849745 259.81744312 38.68884587 249.63633513 C38.69331554 237.95129982 38.71082086 226.26638211 38.73984647 214.58138251 C38.76159432 205.50567893 38.77155716 196.43000812 38.77288699 187.3542788 C38.77392612 181.95454124 38.77964017 176.5549145 38.7977066 171.15520477 C40.9799523 121.44987341 40.9799523 121.44987341 22.26245117 77.31567383 C15.87962935 71.57814828 7.57617092 69.57221935 -0.85083008 69.93286133 C-8.4315518 71.00798539 -15.7018196 74.27825629 -20.55004883 80.31567383 Z " fill="#272727" transform="translate(2011.550048828125,1898.684326171875)"/>
<path d="M0 0 C33.33 0 66.66 0 101 0 C109.45218652 39.1995107 117.89822854 78.40033073 126.33267593 117.60366154 C127.99170435 125.31473167 129.651378 133.02566229 131.31187725 140.73641586 C163.33246756 289.43701869 163.33246756 289.43701869 163 305 C163.66 305 164.32 305 165 305 C165.08854248 304.07082764 165.17708496 303.14165527 165.26831055 302.18432617 C166.64945199 288.74296144 169.21205033 275.56290727 171.8125 262.3125 C172.05364532 261.0757251 172.29479065 259.8389502 172.54324341 258.56469727 C183.07758389 204.57057614 194.95650417 150.89750753 207.0990448 97.24690247 C210.95212956 80.22239407 214.78487502 63.19334789 218.61352539 46.16333008 C222.0734759 30.77505683 225.53709013 15.38760755 229 0 C262.33 0 295.66 0 330 0 C327.5523966 10.40231443 325.07849907 20.66637256 322.1484375 30.921875 C321.77733131 32.23195787 321.40660226 33.54214761 321.03620911 34.85243225 C320.23931768 37.66917482 319.44027802 40.48529495 318.63949585 43.30093384 C316.63806225 50.33937056 314.64921178 57.38137039 312.65893364 64.42296791 C311.94095737 66.96281849 311.22256468 69.50255107 310.50416565 72.0422821 C304.96435879 91.63436132 299.48940139 111.24454493 294.01352692 130.85456848 C291.51386271 139.80565155 289.01277831 148.75633798 286.51171875 157.70703125 C286.09974243 159.18147768 286.09974243 159.18147768 285.67944336 160.68571091 C279.96740257 181.12786286 274.23586146 201.56452142 268.5 222 C262.43957262 243.59235898 256.38546018 265.18645865 250.34765625 286.78515625 C249.92365351 288.30191515 249.92365351 288.30191515 249.49108505 289.84931564 C245.36315314 304.61604432 245.36315314 304.61604432 241.23845863 319.38367748 C240.73330752 321.19106673 240.22710157 322.99816149 239.7198391 324.8049593 C238.43322419 329.39235409 237.16597385 333.98367725 235.93276978 338.58573914 C233.53282183 347.46363255 231.00177879 356.19375558 227.82137012 364.82745552 C210.96801823 410.82045276 212.88603805 457.39512704 213.40218014 505.73660117 C213.54580322 519.54906878 213.55757193 533.36172803 213.57909584 547.17482281 C213.6160515 568.78478485 213.82111659 590.38966472 214 612 C181.33 612 148.66 612 115 612 C114.98582031 597.8925 114.97164062 583.785 114.95703125 569.25 C114.93696859 560.29946096 114.91564931 551.34895395 114.88867188 542.3984375 C114.84610827 528.19952817 114.80859684 514.00073729 114.80444336 499.80175781 C114.80139426 489.45905709 114.78077687 479.1165623 114.73947543 468.77394104 C114.71822957 463.30270169 114.70550142 457.8317545 114.71384621 452.36047363 C114.72143977 447.19915296 114.70534972 442.03842165 114.67193985 436.87720871 C114.6637701 434.99402985 114.66388058 433.11079167 114.67340279 431.22761917 C114.72829817 419.16642672 113.13549166 409.31622406 109 398 C108.51720019 396.40810016 108.0502207 394.81115591 107.61112976 393.20664978 C107.42864654 392.54491383 107.24616331 391.88317787 107.05815029 391.20138931 C106.88000318 390.54445965 106.70185606 389.88752998 106.51831055 389.21069336 C106.31175118 388.45856945 106.10519182 387.70644554 105.89237309 386.93153 C105.22115921 384.48502158 104.55392726 382.03744721 103.88671875 379.58984375 C103.39986392 377.81249303 102.91273428 376.03521757 102.425354 374.25801086 C101.38614202 370.46666885 100.3486185 366.67487067 99.31246948 362.88269043 C97.65541715 356.8184281 95.99427275 350.75529151 94.33227539 344.69238281 C94.05044623 343.66424154 93.76861708 342.63610027 93.47824764 341.57680321 C92.90457178 339.48398813 92.33088545 337.39117592 91.7571888 335.29836655 C90.88623614 332.12070604 90.01564093 328.94294778 89.14512634 325.76516724 C83.67872144 305.81260785 78.18184296 285.86851025 72.67642593 265.92668533 C71.43532658 261.430927 70.19462049 256.93506014 68.95385742 252.43920898 C67.21240711 246.1293286 65.47078197 239.81949651 63.72898006 233.50971317 C59.23331833 217.22378242 54.74071775 200.93700747 50.24820614 184.65020752 C48.50768926 178.34032375 46.76695739 172.03049932 45.02612305 165.72070312 C40.41362266 149.00207386 35.80199141 132.28320629 31.19348145 115.56347656 C29.32060113 108.76867313 27.44727572 101.97399243 25.57386017 95.17933655 C24.31156805 90.60102278 23.04950638 86.02264581 21.78808594 81.4440918 C20.61512781 77.18664646 19.44158448 72.92936288 18.26756287 68.67221069 C17.81082257 67.01578288 17.35424696 65.35930966 16.89784241 63.70278931 C14.1679883 53.79647786 11.4136908 43.89742663 8.63085938 34.00585938 C8.06886753 32.0049961 7.50691644 30.00412137 6.94500732 28.00323486 C5.86573769 24.1604797 4.78134677 20.31921843 3.69415283 16.47869873 C3.20574437 14.74138592 2.71751453 13.00402288 2.22949219 11.26660156 C2.00275566 10.47100578 1.77601913 9.67541 1.5424118 8.85570526 C0.69171102 5.81409602 0 3.17478788 0 0 Z " fill="#272727" transform="translate(1571,1742)"/>
<path d="M0 0 C32.43901366 28.53228536 38.12793538 75.44922326 40.75112915 116.11895752 C40.83289702 117.51151431 40.91319571 118.90415798 40.9921875 120.296875 C41.05606218 121.41157291 41.05606218 121.41157291 41.12122726 122.54878998 C42.41397254 145.93997179 42.09885962 169.37207375 42.01171875 192.7890625 C41.97046875 208.5465625 41.92921875 224.3040625 41.88671875 240.5390625 C-13.55328125 240.5390625 -68.99328125 240.5390625 -126.11328125 240.5390625 C-131.02353364 301.71564332 -131.02353364 301.71564332 -110.11328125 362.5390625 C-107.74793536 364.1349627 -107.74793536 364.1349627 -105.17578125 365.2890625 C-103.92474609 365.90007813 -103.92474609 365.90007813 -102.6484375 366.5234375 C-93.03293258 370.37556582 -81.53164561 369.52934723 -72.11328125 365.5390625 C-64.04389489 361.85803652 -60.13325806 356.33076886 -56.73828125 348.27734375 C-50.63803301 330.90252958 -49.8423043 311.81491621 -49.11328125 293.5390625 C-39.74630372 293.4049247 -30.44001731 293.82474466 -21.09375 294.37890625 C-19.58068575 294.46640854 -18.06760869 294.55368962 -16.55451965 294.64076233 C-13.40706201 294.82266026 -10.25975844 295.00697652 -7.11254883 295.19311523 C-3.09391602 295.43062912 0.92502596 295.66235279 4.94409657 295.8923254 C8.05928865 296.07115849 11.17430771 296.25287046 14.28928185 296.43545723 C15.77109594 296.52200712 17.25295924 296.60771922 18.73487282 296.69254875 C20.80625922 296.81159005 22.87738397 296.93447657 24.94848633 297.05834961 C26.12252518 297.12718857 27.29656403 297.19602753 28.50617981 297.26695251 C31.99565037 297.54783074 35.42709239 298.00883448 38.88671875 298.5390625 C39.53804748 338.15320991 39.53804748 338.15320991 35.88671875 353.5390625 C35.59667969 354.76786133 35.59667969 354.76786133 35.30078125 356.02148438 C31.22492346 372.53877229 24.4961759 387.90008745 12.88671875 400.5390625 C12.16226563 401.35503906 11.4378125 402.17101563 10.69140625 403.01171875 C-12.26475345 427.52101797 -47.58653759 436.45341425 -80.10791016 437.64916992 C-107.24149921 438.17635967 -133.55552219 435.93898247 -158.11328125 423.5390625 C-159.15613281 423.01699219 -160.19898437 422.49492187 -161.2734375 421.95703125 C-188.39385468 407.27127175 -203.46201175 380.09945473 -212.4140625 351.515625 C-220.79683313 323.11293847 -224.26944381 292.95613431 -224.25854492 263.40307617 C-224.26154795 262.05242828 -224.26495304 260.70178123 -224.26872253 259.35113525 C-224.27745568 255.72436361 -224.27989622 252.09761564 -224.28053832 248.47083449 C-224.28125554 246.18941432 -224.28340247 243.90799992 -224.28603554 241.62658119 C-224.29525736 233.62255099 -224.29937487 225.61853729 -224.29858398 217.61450195 C-224.29798574 210.22792038 -224.30849579 202.84141242 -224.32432765 195.45484942 C-224.33754106 189.05507518 -224.34276211 182.65532457 -224.34212857 176.25553685 C-224.34187737 172.45933991 -224.34451305 168.66320837 -224.35530663 164.86702538 C-224.4143026 142.57695936 -223.89936972 120.33743807 -220.30078125 98.2890625 C-220.13046387 97.22171875 -219.96014648 96.154375 -219.78466797 95.0546875 C-214.46070501 62.85213927 -205.10213723 31.62463455 -182.11328125 7.5390625 C-181.58605469 6.93707031 -181.05882813 6.33507813 -180.515625 5.71484375 C-140.84058379 -37.81608382 -43.14661189 -35.90815552 0 0 Z M-112.3671875 52.5546875 C-128.69277667 71.10815349 -126.29240229 103.89852514 -126.2109375 127.0703125 C-126.20946106 128.50358033 -126.20844469 129.93684871 -126.20788574 131.37011719 C-126.20271419 136.59310736 -126.18875374 141.81608588 -126.17578125 147.0390625 C-126.15515625 158.7540625 -126.13453125 170.4690625 -126.11328125 182.5390625 C-102.35328125 182.5390625 -78.59328125 182.5390625 -54.11328125 182.5390625 C-54.07203125 171.0303125 -54.03078125 159.5215625 -53.98828125 147.6640625 C-53.97007324 144.08965332 -53.95186523 140.51524414 -53.93310547 136.83251953 C-51.75813223 92.76057034 -51.75813223 92.76057034 -67.7734375 53.64453125 C-79.28112761 42.87081682 -100.29554208 42.41550922 -112.3671875 52.5546875 Z " fill="#272727" transform="translate(3600.11328125,1921.4609375)"/>
<path d="M0 0 C98.34 0 196.68 0 298 0 C298 26.4 298 52.8 298 80 C265.33 80 232.66 80 199 80 C199 254.9 199 429.8 199 610 C166.33 610 133.66 610 100 610 C100 435.43 100 260.86 100 81 C67 81 34 81 0 81 C0 54.27 0 27.54 0 0 Z " fill="#272727" transform="translate(2450,1744)"/>
<path d="M0 0 C3.86349391 1.54539756 7.12420698 3.11206551 10.69921875 5.16796875 C11.81264648 5.80621582 12.92607422 6.44446289 14.07324219 7.10205078 C15.27804914 7.79710633 16.48280029 8.4922586 17.6875 9.1875 C18.94288672 9.90894749 20.19842292 10.63013494 21.45410156 11.35107422 C24.68120292 13.2050294 27.90596414 15.06301465 31.13006592 16.92218018 C32.90920925 17.94766871 34.68904049 18.97194872 36.46923828 19.99560547 C48.99397142 27.19764978 61.49177714 34.44453711 73.96630859 41.7331543 C84.52647084 47.8994513 95.12142546 54.00505039 105.71777344 60.10888672 C112.22871257 63.86028024 118.73663194 67.61690994 125.24511719 71.37255859 C130.68585336 74.51182246 136.12731477 77.64981497 141.5703125 80.78515625 C153.05306897 87.40141117 164.51960901 94.04390011 175.96142578 100.73071289 C183.29312479 105.01244917 190.64282981 109.26220007 198 113.5 C207.3232783 118.87029689 216.62638732 124.27374014 225.91479492 129.70410156 C231.32624348 132.86516026 236.7454632 136.01212719 242.17578125 139.140625 C242.77349335 139.4850061 243.37120544 139.82938721 243.98703003 140.1842041 C246.89465649 141.85891632 249.80326482 143.53188674 252.71289062 145.203125 C253.75251953 145.80125 254.79214844 146.399375 255.86328125 147.015625 C256.78407471 147.54446289 257.70486816 148.07330078 258.65356445 148.61816406 C260.47062767 149.68824811 262.24541946 150.83027964 264 152 C264 152.66 264 153.32 264 154 C262.9790625 154.55945312 261.958125 155.11890625 260.90625 155.6953125 C251.04754419 161.12256817 241.29677489 166.71534635 231.58740234 172.4050293 C223.79504934 176.96612398 215.96894782 181.46593031 208.125 185.9375 C195.79950519 192.96560673 183.50277637 200.04240605 171.21777344 207.14111328 C165.81329358 210.26324603 160.40654621 213.38144734 155 216.5 C148.4405645 220.2837003 141.88153412 224.06809509 135.32421875 227.85546875 C125.3939076 233.58987378 115.46031285 239.31783306 105.5 245 C88.34515068 254.78837464 71.24781911 264.67482561 54.20019531 274.64868164 C45.71051604 279.60611274 37.17458371 284.48039421 28.62927246 289.34103394 C20.50195578 293.96500016 12.44309551 298.67263372 4.4921875 303.59375 C2 305 2 305 0 305 C0 204.35 0 103.7 0 0 Z " fill="#FFFDFD" transform="translate(860,1896)"/>
</svg>
